<?xml version="1.0" encoding="UTF-8"?>
<svg xmlns="http://www.w3.org/2000/svg" width="64" height="64" viewBox="0 0 64 64">
  <path d="M24 14 C24 10 20 10 20 14 C20 17 24 17 24 14 Z" fill="black"/>
  <path d="M44 22 C44 18 40 18 40 22 C40 25 44 25 44 22 Z" fill="black"/>
  <path d="M18 32 C18 28 14 28 14 32 C14 35 18 35 18 32 Z" fill="black"/>
  <path d="M38 36 C38 32 34 32 34 36 C34 39 38 39 38 36 Z" fill="black"/>
  <path d="M52 42 C52 38 48 38 48 42 C48 45 52 45 52 42 Z" fill="black"/>
  <path d="M28 46 C28 42 24 42 24 46 C24 49 28 49 28 46 Z" fill="black"/>
  <path d="M14 50 C14 46 10 46 10 50 C10 53 14 53 14 50 Z" fill="black"/>
</svg>
