<?xml version="1.0" encoding="UTF-8"?>
<svg xmlns="http://www.w3.org/2000/svg" viewBox="0 0 64 64">
  <!-- Base unit -->
  <rect x="8" y="44" width="48" height="16" rx="4" fill="black"/>
  <!-- Steam wisp left -->
  <path d="M18 40 C18 36 14 34 14 30 C14 26 18 24 18 20 C18 16 14 14 14 10 L18 10 C18 14 22 16 22 20 C22 24 18 26 18 30 C18 34 22 36 22 40 Z" fill="black"/>
  <!-- Steam wisp center -->
  <path d="M30 40 C30 36 26 34 26 30 C26 26 30 24 30 20 C30 16 26 14 26 10 L30 10 C30 14 34 16 34 20 C34 24 30 26 30 30 C30 34 34 36 34 40 Z" fill="black"/>
  <!-- Steam wisp right -->
  <path d="M42 40 C42 36 38 34 38 30 C38 26 42 24 42 20 C42 16 38 14 38 10 L42 10 C42 14 46 16 46 20 C46 24 42 26 42 30 C42 34 46 36 46 40 Z" fill="black"/>
</svg>
