<?xml version="1.0" encoding="UTF-8"?>
<svg xmlns="http://www.w3.org/2000/svg" viewBox="0 0 64 64">
  <!-- Valve wheel (outline via evenodd cutout) -->
  <path d="M32 8 C24.3 8 18 14.3 18 22 C18 29.7 24.3 36 32 36 C39.7 36 46 29.7 46 22 C46 14.3 39.7 8 32 8 Z M32 12 C37.5 12 42 16.5 42 22 C42 27.5 37.5 32 32 32 C26.5 32 22 27.5 22 22 C22 16.5 26.5 12 32 12 Z" fill="black" fill-rule="evenodd"/>
  <!-- Valve handle crossbar -->
  <rect x="20" y="20" width="24" height="4" rx="2" fill="black"/>
  <!-- Stem -->
  <rect x="30" y="34" width="4" height="8" fill="black"/>
  <!-- Pipe body (outline via evenodd) -->
  <path d="M16 42 L48 42 L48 58 L16 58 Z M20 46 L44 46 L44 54 L20 54 Z" fill="black" fill-rule="evenodd"/>
</svg>
