<?xml version="1.0" encoding="UTF-8"?>
<svg xmlns="http://www.w3.org/2000/svg" width="64" height="64" viewBox="0 0 64 64">

  <path d="M20 12 Q20 8 24 8 Q28 8 28 12 L28 18 Q28 22 24 22 Q20 22 20 18 Z" fill="currentColor" opacity="0.8"/>
  <path d="M36 20 Q36 16 40 16 Q44 16 44 20 L44 26 Q44 30 40 30 Q36 30 36 26 Z" fill="currentColor" opacity="0.6"/>
  <path d="M14 30 Q14 26 18 26 Q22 26 22 30 L22 36 Q22 40 18 40 Q14 40 14 36 Z" fill="currentColor" opacity="0.7"/>
  <path d="M30 36 Q30 32 34 32 Q38 32 38 36 L38 42 Q38 46 34 46 Q30 46 30 42 Z" fill="currentColor" opacity="0.5"/>
  <path d="M44 40 Q44 36 48 36 Q52 36 52 40 L52 46 Q52 50 48 50 Q44 50 44 46 Z" fill="currentColor" opacity="0.6"/>

</svg>