<?xml version="1.0" encoding="UTF-8"?>
<svg xmlns="http://www.w3.org/2000/svg" width="64" height="64" viewBox="0 0 64 64">
  <path d="M20 8 L28 8 C30 8 32 10 32 12 L32 32 C32 34 30 36 28 36 L20 36 C18 36 16 34 16 32 L16 12 C16 10 18 8 20 8 Z" fill="black" transform="rotate(20 24 22)"/>
  <circle cx="21" cy="16" r="1.5" fill="white" transform="rotate(20 24 22)"/>
  <circle cx="27" cy="16" r="1.5" fill="white" transform="rotate(20 24 22)"/>
  <circle cx="21" cy="22" r="1.5" fill="white" transform="rotate(20 24 22)"/>
  <circle cx="27" cy="22" r="1.5" fill="white" transform="rotate(20 24 22)"/>
  <rect x="30" y="38" width="3" height="14" rx="1.5" fill="black" transform="rotate(5 31 45)"/>
</svg>
